<svg width="487.7" height="80" viewBox="0 0 487.7 80" xmlns="http://www.w3.org/2000/svg"><g id="svgGroup" stroke-linecap="round" fill-rule="evenodd" font-size="9pt" stroke="#000" stroke-width="0.25mm" fill="#000" style="stroke:#000;stroke-width:0.25mm;fill:#000"><path d="M 449 0.1 L 449 37.5 A 25.09 25.09 0 0 1 450.927 33.49 Q 453.126 29.847 456.25 28.1 Q 460.9 25.5 466 25.5 Q 468.909 25.5 471.086 26.086 A 12.027 12.027 0 0 1 472.35 26.5 Q 474.9 27.5 476.6 29.3 A 10.835 10.835 0 0 1 478.831 32.862 A 13.498 13.498 0 0 1 479.3 34.3 Q 480.1 37.3 480.1 42.4 L 480.1 69.1 Q 480.1 72.604 481.318 74.229 A 3.565 3.565 0 0 0 481.85 74.8 Q 483.445 76.167 486.992 76.288 A 20.755 20.755 0 0 0 487.7 76.3 L 487.7 78.4 Q 486.015 78.301 482.562 78.153 A 902.368 902.368 0 0 0 482.5 78.15 A 159.797 159.797 0 0 0 476.113 78.001 A 146.011 146.011 0 0 0 475.7 78 Q 472.4 78 469.25 78.15 Q 466.1 78.3 464.5 78.4 L 464.5 76.3 Q 467.748 76.3 469.286 75.079 A 3.662 3.662 0 0 0 469.6 74.8 A 3.952 3.952 0 0 0 470.423 73.525 Q 471.1 71.922 471.1 69.1 L 471.1 40.2 A 33.559 33.559 0 0 0 470.942 36.871 A 26.473 26.473 0 0 0 470.6 34.5 A 8.279 8.279 0 0 0 469.822 32.216 A 6.913 6.913 0 0 0 468.35 30.3 Q 467.031 29.094 464.661 28.797 A 13.382 13.382 0 0 0 463 28.7 A 12.365 12.365 0 0 0 458.082 29.667 A 11.865 11.865 0 0 0 455.75 31 A 14.421 14.421 0 0 0 451.936 35.208 A 18.508 18.508 0 0 0 450.8 37.4 A 21.035 21.035 0 0 0 449.264 42.918 A 27.539 27.539 0 0 0 449 46.8 L 449 69.1 Q 449 72.423 449.939 74.056 A 3.54 3.54 0 0 0 450.5 74.8 Q 451.933 76.233 455.284 76.297 A 16.619 16.619 0 0 0 455.6 76.3 L 455.6 78.4 Q 454.375 78.323 452.241 78.218 A 699.179 699.179 0 0 0 450.85 78.15 Q 447.7 78 444.4 78 A 158.016 158.016 0 0 0 438.037 78.132 A 172.733 172.733 0 0 0 437.6 78.15 Q 434.1 78.3 432.4 78.4 L 432.4 76.3 Q 435.941 76.3 437.729 75.181 A 4.317 4.317 0 0 0 438.25 74.8 Q 439.826 73.449 439.983 69.909 A 18.297 18.297 0 0 0 440 69.1 L 440 12.1 A 20.211 20.211 0 0 0 439.873 9.755 Q 439.55 6.995 438.4 5.45 Q 436.842 3.357 432.631 3.302 A 17.559 17.559 0 0 0 432.4 3.3 L 432.4 1.2 A 67.314 67.314 0 0 0 437.847 1.495 A 60.756 60.756 0 0 0 438.6 1.5 Q 441.5 1.5 444.15 1.15 A 31.037 31.037 0 0 0 446.989 0.646 A 24.902 24.902 0 0 0 449 0.1 Z M 33 7.1 L 57.4 70 A 20.278 20.278 0 0 0 58.25 71.887 Q 59.219 73.755 60.333 74.699 A 4.83 4.83 0 0 0 60.8 75.05 A 10.634 10.634 0 0 0 62.071 75.773 Q 62.766 76.104 63.417 76.263 A 5.063 5.063 0 0 0 64.3 76.4 L 64.3 78.4 A 42.845 42.845 0 0 0 62.673 78.271 Q 61.943 78.226 61.125 78.196 A 87.582 87.582 0 0 0 59.4 78.15 Q 56.5 78.1 53.6 78.1 Q 49.7 78.1 46.3 78.15 Q 43.259 78.195 41.257 78.359 A 35.883 35.883 0 0 0 40.8 78.4 L 40.8 76.4 A 27.337 27.337 0 0 0 42.854 76.248 Q 46.013 75.883 47.166 74.787 A 2.512 2.512 0 0 0 47.3 74.65 A 2.088 2.088 0 0 0 47.75 73.802 Q 48.263 71.984 46.7 68 L 28.1 18.3 L 29.7 17 L 12.3 62.2 A 41.581 41.581 0 0 0 11.427 64.578 Q 11.017 65.819 10.76 66.912 A 17.042 17.042 0 0 0 10.4 68.95 A 13.499 13.499 0 0 0 10.335 69.774 Q 10.248 71.595 10.738 72.84 A 4.479 4.479 0 0 0 10.95 73.3 A 4.484 4.484 0 0 0 12.735 75.103 A 6.415 6.415 0 0 0 13.85 75.6 A 12.916 12.916 0 0 0 15.65 76.063 Q 17.135 76.34 19 76.4 L 19 78.4 Q 16.2 78.2 13.15 78.15 Q 10.1 78.1 7.5 78.1 A 209.962 209.962 0 0 0 5.73 78.107 Q 5.037 78.113 4.417 78.124 A 104.135 104.135 0 0 0 3.25 78.15 A 34.381 34.381 0 0 0 1.26 78.262 A 27.609 27.609 0 0 0 0 78.4 L 0 76.4 A 7.839 7.839 0 0 0 1.865 75.652 Q 2.968 75.047 4.1 74.05 A 9.181 9.181 0 0 0 5.481 72.487 Q 6.67 70.821 7.712 68.185 A 33.919 33.919 0 0 0 7.9 67.7 L 31.4 7.1 L 32.2 7.1 L 33 7.1 Z M 340.6 42.4 L 340.6 69.1 Q 340.6 72.604 341.818 74.229 A 3.565 3.565 0 0 0 342.35 74.8 Q 343.945 76.167 347.492 76.288 A 20.755 20.755 0 0 0 348.2 76.3 L 348.2 78.4 Q 346.515 78.301 343.062 78.153 A 902.368 902.368 0 0 0 343 78.15 A 159.797 159.797 0 0 0 336.613 78.001 A 146.011 146.011 0 0 0 336.2 78 Q 332.9 78 329.75 78.15 Q 326.6 78.3 325 78.4 L 325 76.3 Q 328.248 76.3 329.786 75.079 A 3.662 3.662 0 0 0 330.1 74.8 A 3.952 3.952 0 0 0 330.923 73.525 Q 331.6 71.922 331.6 69.1 L 331.6 40.2 A 41.908 41.908 0 0 0 331.474 36.882 A 32.737 32.737 0 0 0 331.2 34.5 A 8.607 8.607 0 0 0 330.62 32.416 A 6.668 6.668 0 0 0 329.2 30.3 Q 327.6 28.7 324 28.7 Q 320.1 28.7 317.05 31.1 A 14.94 14.94 0 0 0 313.488 35.199 A 19.334 19.334 0 0 0 312.25 37.65 Q 310.5 41.8 310.5 46.9 L 310.5 69.1 Q 310.5 72.423 311.439 74.056 A 3.54 3.54 0 0 0 312 74.8 Q 313.433 76.233 316.784 76.297 A 16.619 16.619 0 0 0 317.1 76.3 L 317.1 78.4 Q 315.875 78.323 313.741 78.218 A 699.179 699.179 0 0 0 312.35 78.15 Q 309.2 78 305.9 78 A 158.016 158.016 0 0 0 299.537 78.132 A 172.733 172.733 0 0 0 299.1 78.15 Q 295.6 78.3 293.9 78.4 L 293.9 76.3 Q 297.441 76.3 299.229 75.181 A 4.317 4.317 0 0 0 299.75 74.8 Q 301.326 73.449 301.483 69.909 A 18.297 18.297 0 0 0 301.5 69.1 L 301.5 37.8 A 20.211 20.211 0 0 0 301.373 35.455 Q 301.05 32.695 299.9 31.15 Q 298.342 29.057 294.131 29.002 A 17.559 17.559 0 0 0 293.9 29 L 293.9 26.9 A 67.314 67.314 0 0 0 299.347 27.195 A 60.756 60.756 0 0 0 300.1 27.2 Q 303 27.2 305.65 26.85 A 31.037 31.037 0 0 0 308.489 26.346 A 24.902 24.902 0 0 0 310.5 25.8 L 310.5 37.6 Q 313.1 31.1 317.6 28.3 A 18.841 18.841 0 0 1 322.612 26.075 A 16.267 16.267 0 0 1 326.9 25.5 A 20.739 20.739 0 0 1 329.79 25.691 Q 331.538 25.938 333 26.5 A 12.49 12.49 0 0 1 335.64 27.878 A 10.486 10.486 0 0 1 337.3 29.3 A 9.735 9.735 0 0 1 339.259 32.398 A 13.056 13.056 0 0 1 339.9 34.5 A 26.662 26.662 0 0 1 340.327 37.111 Q 340.493 38.544 340.558 40.194 A 56.034 56.034 0 0 1 340.6 42.4 Z M 281.2 25.8 L 281.2 67.6 Q 281.2 71.837 282.663 73.991 A 5.521 5.521 0 0 0 282.85 74.25 Q 284.5 76.4 288.8 76.4 L 288.8 78.5 Q 285.7 78.2 282.6 78.2 A 50.934 50.934 0 0 0 278.391 78.369 A 44.952 44.952 0 0 0 277.05 78.5 A 22.818 22.818 0 0 0 273.987 79.051 A 18.787 18.787 0 0 0 272.2 79.6 L 272.2 67.8 A 24.184 24.184 0 0 1 270.151 71.967 Q 268.074 75.283 265.15 77.05 A 19.393 19.393 0 0 1 260.099 79.235 A 16.661 16.661 0 0 1 255.8 79.8 A 20.739 20.739 0 0 1 252.91 79.609 Q 251.163 79.363 249.7 78.8 A 12.49 12.49 0 0 1 247.06 77.422 A 10.486 10.486 0 0 1 245.4 76 A 9.735 9.735 0 0 1 243.441 72.902 A 13.056 13.056 0 0 1 242.8 70.8 A 26.662 26.662 0 0 1 242.373 68.189 Q 242.207 66.756 242.142 65.106 A 56.034 56.034 0 0 1 242.1 62.9 L 242.1 37.8 A 20.211 20.211 0 0 0 241.973 35.455 Q 241.65 32.695 240.5 31.15 Q 238.942 29.057 234.731 29.002 A 17.559 17.559 0 0 0 234.5 29 L 234.5 26.9 A 67.314 67.314 0 0 0 239.947 27.195 A 60.756 60.756 0 0 0 240.7 27.2 Q 243.6 27.2 246.25 26.85 A 31.037 31.037 0 0 0 249.089 26.346 A 24.902 24.902 0 0 0 251.1 25.8 L 251.1 65.1 A 41.908 41.908 0 0 0 251.226 68.418 A 32.737 32.737 0 0 0 251.5 70.8 A 8.607 8.607 0 0 0 252.08 72.884 A 6.668 6.668 0 0 0 253.5 75 Q 255.1 76.6 258.7 76.6 Q 262.6 76.6 265.65 74.2 A 15.118 15.118 0 0 0 269.296 69.985 A 19.302 19.302 0 0 0 270.45 67.7 A 21.773 21.773 0 0 0 272.029 61.59 A 27.217 27.217 0 0 0 272.2 58.5 L 272.2 37.8 A 20.211 20.211 0 0 0 272.073 35.455 Q 271.75 32.695 270.6 31.15 Q 269.042 29.057 264.831 29.002 A 17.559 17.559 0 0 0 264.6 29 L 264.6 26.9 A 67.314 67.314 0 0 0 270.047 27.195 A 60.756 60.756 0 0 0 270.8 27.2 Q 273.7 27.2 276.35 26.85 A 31.037 31.037 0 0 0 279.189 26.346 A 24.902 24.902 0 0 0 281.2 25.8 Z M 425.7 47.5 L 390.4 47.5 L 390.3 45.6 L 416.1 45.6 A 39.541 39.541 0 0 0 416.133 43.987 Q 416.133 40.008 415.3 36.55 Q 414.3 32.4 412.15 29.9 A 6.914 6.914 0 0 0 407.124 27.415 A 8.868 8.868 0 0 0 406.6 27.4 Q 402.095 27.4 398.598 31.811 A 18.243 18.243 0 0 0 398.45 32 Q 394.9 36.6 394.2 46.6 L 394.5 47 Q 394.3 48.5 394.2 50.3 Q 394.1 52.1 394.1 53.9 Q 394.1 60.178 395.975 64.836 A 21.103 21.103 0 0 0 396.3 65.6 A 21.979 21.979 0 0 0 398.397 69.316 A 15.751 15.751 0 0 0 402.05 73.05 A 14.386 14.386 0 0 0 405.319 74.837 A 11.386 11.386 0 0 0 409.4 75.6 Q 412.4 75.6 415.1 74.65 A 13.369 13.369 0 0 0 419.037 72.433 A 16.19 16.19 0 0 0 420.1 71.5 A 15.854 15.854 0 0 0 422.246 68.931 Q 423.248 67.454 424.1 65.6 L 426.1 66.4 A 19.252 19.252 0 0 1 423.99 70.744 A 23.943 23.943 0 0 1 422.5 72.8 Q 420 75.9 416.2 77.85 A 17.509 17.509 0 0 1 410.698 79.569 A 22.783 22.783 0 0 1 407.4 79.8 A 26.268 26.268 0 0 1 401.296 79.122 A 20.138 20.138 0 0 1 395.05 76.5 Q 389.9 73.2 387.15 67.35 A 28.542 28.542 0 0 1 384.787 59.354 A 37.111 37.111 0 0 1 384.4 53.9 A 46.365 46.365 0 0 1 384.917 46.79 Q 385.603 42.371 387.2 38.75 A 24.854 24.854 0 0 1 390.668 33.011 A 20.633 20.633 0 0 1 395.1 28.95 A 20.136 20.136 0 0 1 404.815 25.593 A 25.268 25.268 0 0 1 407 25.5 A 23.24 23.24 0 0 1 412.77 26.176 A 16.025 16.025 0 0 1 420.75 30.85 Q 424.403 34.798 425.36 41.988 A 41.868 41.868 0 0 1 425.7 47.5 Z M 76.4 68.5 L 78.4 69.6 A 17.955 17.955 0 0 0 81.37 73.249 A 14.942 14.942 0 0 0 84.6 75.55 A 16.688 16.688 0 0 0 89.782 77.31 A 15.394 15.394 0 0 0 92.2 77.5 Q 98.135 77.5 101.442 72.752 A 14.943 14.943 0 0 0 102.25 71.45 A 21.07 21.07 0 0 0 104.052 66.892 Q 105.6 61.332 105.6 52.7 A 83.578 83.578 0 0 0 105.425 47.116 Q 105.245 44.445 104.882 42.155 A 38.163 38.163 0 0 0 104.3 39.2 Q 103 33.8 100.3 31.15 A 9.16 9.16 0 0 0 94.559 28.553 A 12.373 12.373 0 0 0 93.4 28.5 A 10.366 10.366 0 0 0 87.659 30.277 A 15.795 15.795 0 0 0 84.85 32.65 A 15.611 15.611 0 0 0 81.817 37.387 Q 80.938 39.463 80.43 42.007 A 33.266 33.266 0 0 0 80 44.8 L 78.8 43.4 A 28.496 28.496 0 0 1 80.113 37.67 Q 81.681 33.174 84.75 30.2 Q 89.6 25.5 96.3 25.5 A 16.43 16.43 0 0 1 108.685 30.854 A 21.878 21.878 0 0 1 109.9 32.25 A 21.265 21.265 0 0 1 113.346 38.732 Q 115.3 44.459 115.3 52.7 A 44.23 44.23 0 0 1 114.871 59.035 Q 114.368 62.504 113.277 65.403 A 23.977 23.977 0 0 1 112.25 67.75 A 24.086 24.086 0 0 1 108.814 72.895 A 19.392 19.392 0 0 1 104.1 76.8 Q 99 79.8 93 79.8 Q 88 79.8 83.35 76.95 A 16.691 16.691 0 0 1 77.26 70.344 A 21.289 21.289 0 0 1 76.4 68.5 Z M 160.8 34.8 L 159.5 35.8 A 14.541 14.541 0 0 0 158.247 33 Q 157.199 31.224 155.715 30.096 A 8.882 8.882 0 0 0 155.15 29.7 Q 152.2 27.8 148.2 27.8 A 10.412 10.412 0 0 0 140.656 31.02 A 17.09 17.09 0 0 0 138.35 33.9 A 19.573 19.573 0 0 0 136.157 38.732 Q 134.498 44.053 134.498 52.077 A 79.141 79.141 0 0 0 134.5 52.7 A 70.187 70.187 0 0 0 134.7 58.167 Q 135.057 62.723 136.05 66.15 A 23.169 23.169 0 0 0 137.293 69.509 Q 138.119 71.277 139.185 72.614 A 11.648 11.648 0 0 0 140.65 74.15 A 10.75 10.75 0 0 0 147.154 76.768 A 13.915 13.915 0 0 0 148.1 76.8 Q 152.3 76.8 155.7 73.2 A 13.232 13.232 0 0 0 158.261 69.159 Q 159.423 66.373 159.8 62.6 L 161 64 A 26.378 26.378 0 0 1 160.066 68.811 Q 158.808 73.009 156.15 75.7 A 13.478 13.478 0 0 1 148.951 79.457 A 19.581 19.581 0 0 1 145.2 79.8 Q 139 79.8 134.35 76.8 A 17.372 17.372 0 0 1 128.947 71.178 A 23.261 23.261 0 0 1 127.25 67.8 A 29.878 29.878 0 0 1 125.619 62.186 Q 124.8 57.961 124.8 52.7 Q 124.8 43.6 127.95 37.55 A 24.642 24.642 0 0 1 131.471 32.405 A 19.866 19.866 0 0 1 136.25 28.5 Q 141.4 25.5 147.4 25.5 Q 151.8 25.5 155.65 27.6 Q 159.5 29.7 160.8 34.8 Z M 370.7 42.4 L 370.7 69.1 Q 370.7 72.604 371.918 74.229 A 3.565 3.565 0 0 0 372.45 74.8 Q 374.045 76.167 377.592 76.288 A 20.755 20.755 0 0 0 378.3 76.3 L 378.3 78.4 Q 376.615 78.301 373.162 78.153 A 902.368 902.368 0 0 0 373.1 78.15 A 159.797 159.797 0 0 0 366.713 78.001 A 146.011 146.011 0 0 0 366.3 78 Q 363 78 359.85 78.15 Q 356.7 78.3 355.1 78.4 L 355.1 76.3 Q 358.348 76.3 359.886 75.079 A 3.662 3.662 0 0 0 360.2 74.8 A 3.952 3.952 0 0 0 361.023 73.525 Q 361.7 71.922 361.7 69.1 L 361.7 40.2 A 41.908 41.908 0 0 0 361.574 36.882 A 32.737 32.737 0 0 0 361.3 34.5 A 8.607 8.607 0 0 0 360.72 32.416 A 6.668 6.668 0 0 0 359.3 30.3 Q 357.7 28.7 354.1 28.7 Q 350.2 28.7 347.15 31.1 A 15.118 15.118 0 0 0 343.504 35.315 A 19.302 19.302 0 0 0 342.35 37.6 A 21.773 21.773 0 0 0 340.771 43.71 A 27.217 27.217 0 0 0 340.6 46.8 L 340.3 37.5 A 26.292 26.292 0 0 1 342.251 33.483 Q 344.491 29.773 347.6 28.05 Q 352.2 25.5 357 25.5 A 20.739 20.739 0 0 1 359.89 25.691 Q 361.638 25.938 363.1 26.5 A 12.49 12.49 0 0 1 365.74 27.878 A 10.486 10.486 0 0 1 367.4 29.3 A 9.735 9.735 0 0 1 369.359 32.398 A 13.056 13.056 0 0 1 370 34.5 A 26.662 26.662 0 0 1 370.427 37.111 Q 370.593 38.544 370.658 40.194 A 56.034 56.034 0 0 1 370.7 42.4 Z M 168.4 0 L 168.4 67.5 Q 168.4 71.737 169.863 73.891 A 5.521 5.521 0 0 0 170.05 74.15 Q 171.7 76.3 176 76.3 L 176 78.4 Q 172.9 78.1 169.8 78.1 A 50.934 50.934 0 0 0 165.591 78.269 A 44.952 44.952 0 0 0 164.25 78.4 A 22.818 22.818 0 0 0 161.187 78.951 A 18.787 18.787 0 0 0 159.4 79.5 L 159.4 12 A 20.211 20.211 0 0 0 159.273 9.655 Q 158.95 6.895 157.8 5.35 Q 156.242 3.257 152.031 3.202 A 17.559 17.559 0 0 0 151.8 3.2 L 151.8 1.1 A 67.314 67.314 0 0 0 157.247 1.395 A 60.756 60.756 0 0 0 158 1.4 Q 160.9 1.4 163.55 1.05 A 31.037 31.037 0 0 0 166.389 0.546 A 24.902 24.902 0 0 0 168.4 0 Z M 80.7 0.1 L 80.7 73.2 Q 79.4 74.3 78.05 75.45 Q 76.7 76.6 75.4 77.7 A 541.146 541.146 0 0 0 73.394 79.406 A 608.877 608.877 0 0 0 72.7 80 L 71 79.3 Q 71.4 77.9 71.55 76.45 Q 71.7 75 71.7 73.5 L 71.7 12.1 A 20.211 20.211 0 0 0 71.573 9.755 Q 71.25 6.995 70.1 5.45 Q 68.542 3.357 64.331 3.302 A 17.559 17.559 0 0 0 64.1 3.3 L 64.1 1.2 A 67.314 67.314 0 0 0 69.547 1.495 A 60.756 60.756 0 0 0 70.3 1.5 Q 73.2 1.5 75.85 1.15 A 31.037 31.037 0 0 0 78.689 0.646 A 24.902 24.902 0 0 0 80.7 0.1 Z M 212.642 26.487 A 25.094 25.094 0 0 0 205.5 25.5 A 27.65 27.65 0 0 0 204.329 25.525 A 23.285 23.285 0 0 0 194.05 28.3 Q 188.9 31.1 185.85 37.1 Q 183.848 41.038 183.16 46.525 A 49.733 49.733 0 0 0 182.8 52.7 A 53.041 53.041 0 0 0 182.958 56.875 Q 183.212 60.089 183.875 62.813 A 24.702 24.702 0 0 0 185.85 68.25 Q 188.9 74.2 194.05 77 A 22.498 22.498 0 0 0 197.554 78.536 A 24.5 24.5 0 0 0 205.5 79.8 A 27.7 27.7 0 0 0 207.854 79.702 A 22.804 22.804 0 0 0 217 77 A 18.297 18.297 0 0 0 221.84 73.136 A 22.958 22.958 0 0 0 225.15 68.25 A 23.154 23.154 0 0 0 226.605 64.676 Q 227.442 62.035 227.84 58.869 A 49.589 49.589 0 0 0 228.2 52.7 A 53.458 53.458 0 0 0 228.057 48.707 Q 227.539 41.799 225.15 37.1 A 24.656 24.656 0 0 0 223.272 33.978 A 18.72 18.72 0 0 0 217 28.3 A 21.948 21.948 0 0 0 212.642 26.487 Z M 205.5 27.5 A 9.824 9.824 0 0 0 198.103 30.819 A 16.158 16.158 0 0 0 196.15 33.4 Q 193.059 38.397 192.586 48.773 A 86.309 86.309 0 0 0 192.5 52.7 A 78.004 78.004 0 0 0 192.758 59.286 Q 193.303 65.693 195.002 69.713 A 15.956 15.956 0 0 0 196.15 71.95 A 15.376 15.376 0 0 0 198.565 74.972 A 9.745 9.745 0 0 0 205.5 77.8 A 9.881 9.881 0 0 0 212.962 74.44 A 16.133 16.133 0 0 0 214.85 71.95 Q 218.5 66.1 218.5 52.7 A 78.131 78.131 0 0 0 218.242 46.11 Q 217.69 39.615 215.955 35.55 A 16.105 16.105 0 0 0 214.85 33.4 Q 211.2 27.5 205.5 27.5 Z M 16.4 49.6 L 45.2 49.6 L 45.2 51.6 L 15.4 51.6 L 16.4 49.6 Z" vector-effect="non-scaling-stroke"/></g></svg>